<svg id="Layer_1" xmlns="http://www.w3.org/2000/svg" viewBox="0 0 88 38"><style>.st0{display:none}.st1{display:inline}.st2{fill:#fff}</style><g class="st0"><path d="M3353.3-533.1v1.6h-1.9v1.7h.9v3.5c0 .6.4 1 1.1 1h3.8v-1.7h-2.8c-.2 0-.3-.1-.3-.3v-2.5h3.4v-1.7h-2.2v-1.6h-2zm-1.5-4.2l.3 2h-.7v1.6h6.2v-1.6h-.8l.5-2h-1.7l-.5 2h-1.3l-.3-2h-1.7zm2.3-2.5h-5.2v17.7h1.9v-16.1h7.2v13.7c0 .3-.1.4-.4.4h-2.3v1.7h3c1.2 0 1.8-.5 1.8-1.6v-15.9l-6 .1zm-8.1 10l.5 5.7c.1.9.4 1.4 1 1.4h1.1v-1.7h-.3c-.2 0-.3-.2-.3-.5l-.5-4.9h-1.5zm-4-.2l-.4 4.5c-.1.6-.2.9-.3.9h-.2v1.8h.7c.6 0 1-.6 1.2-1.9l.6-5.4-1.6.1zm1.9-10.5l-2.4 3c-.1.1-.2.2-.2.4v1.4h2.5l-2 2.6c-.4.4-.6.7-.6 1v1.1h2.7v9h1.8v-9h.6c.4 0 .7-.1 1-.4.2-.2.4-.5.4-.7v-2.6h-1.7v2c0 .2-.1.2-.3.2h-2.2l4.8-6.2h-2.1l-1.2 1.5h-1.7l2.6-3.2-2-.1zm-23.7 10.8v1.8h14.9l-3.8 1.9v1c0 .5-.2.7-.5.7h-9.8v1.9h11.3c1 0 1.5-.5 1.5-1.4v-2l4.6-2.1v-1.8h-18.2zm14.8-3h-11.8v-1.6h12.5v1.1c0 .4-.2.5-.7.5zm-14.2-3.3v4.9h15.5c1.2 0 1.8-.4 1.8-1.3v-3.6h-17.3zm7.5-4.5v1.4h-8.3v1.8h19v-1.8h-8.3v-1.4h-2.4zm-17.2 11.8v-4.9h3.6v4.5c0 .3-.2.4-.5.4h-3.1zm6.6-11.1h-9.6v1.7h.8v13.7h-.7v1.8h9.4v-1.8h-6.7v-2.6h3.8c1.3 0 1.9-.5 1.9-1.6v-6.8h-5.7v-2.7h6.7v-1.7h.1zm-11.9 11.1v1.7c0 .2-.1.3-.3.3h-.6v1.6h1.4c.6 0 .9-.3.9-.9v-2.6l-1.4-.1zm-6.6 0v2.5c0 .6.3.9.9.9h1.2v-1.6h-.3c-.2 0-.3-.1-.3-.3v-1.6l-1.5.1zm8.6-6.3h-9.1v1.7h3.6v1.7h-3.6v1.7h3.6v5.5h-3.8v1.8h9.3v-1.8h-3.5v-5.5h3.4v-1.7h-3.4v-1.7h3.5v-1.7zm-6.4-5l-1.1 1.4c-.2.3-.4.5-.6.5h-1.1v1.8h1.8c.4 0 .7-.1.9-.4l1.3-1.5h1.7l1.1 1.5c.2.3.5.4.8.4h1.8v-1.8h-1.1c-.2 0-.4-.2-.5-.5l-1-1.4h-4zM3286.6-539.6l-.6-.7 13.9-10.7 5.4 5.3 14.6-11.4.7.8-15.3 11.7-5.5-5z" class="st1"/></g><path class="st2" d="M13.9 9.2l11-8.7-.4-.5L14 8.2l-4-3.7-10 7.7.4.5L10 5.4zM84.2 31.4h-3.7c-.3 0-.4-.1-.4-.4v-3.3h4.6v-2.2h-3v-2.1H79v2.1h-2.6v2.2h1.2v4.6c0 .9.5 1.3 1.5 1.3h5.1v-2.2zM76.3 22.6h8.3v-2.1h-1.1l.7-2.7h-2.3l-.6 2.7h-1.8l-.4-2.7h-2.2l.4 2.7h-1z"/><path class="st2" d="M79.9 14.4h-7V38h2.6V16.7h9.8v18.2c0 .3-.2.5-.6.5h-3.1v2.3h4c1.6 0 2.4-.7 2.4-2.1V14.4h-8.1zM71.7 34.2l-.7-6.5h-2l.7 7.6c.1 1.2.6 1.9 1.3 1.9h1.5V35h-.3c-.3-.1-.4-.3-.5-.8zM63 33.6c-.1.8-.3 1.2-.4 1.2h-.3v2.4h1c.9 0 1.4-.8 1.6-2.5l.9-7.2h-2.1l-.7 6.1z"/><path class="st2" d="M70.8 25.5c.3-.3.5-.7.5-1V21H69v2.6c0 .2-.2.3-.5.3h-2.9l6.4-8.2h-2.8l-1.6 2h-2.3l3.5-4.2h-2.7l-3.2 4c-.2.2-.3.3-.3.5v1.8H66l-2.7 3.5c-.5.5-.7 1-.7 1.3v1.5h3.6V38h2.4V26.1h.8c.5 0 1-.2 1.4-.6zM34.3 30.4h20.1L49.3 33v1.4c0 .7-.2 1-.7 1H35.4V38h15.2c1.3 0 2-.7 2-1.9v-2.7l6.2-2.9V28H34.3v2.4zM48.6 13.6h-3.4v1.8H34.1v2.5h25.6v-2.5H48.6zM58.3 24.7v-5H35.2v6.7H56c1.5 0 2.3-.6 2.3-1.7zm-3.1-1.2c0 .4-.3.6-.9.6h-16v-2.2h16.9v1.6zM14.6 32.1h-.8v2.2h1.9c.7 0 1.2-.4 1.2-1.3v-3.6H15v2.3c0 .3-.2.4-.4.4zM6.1 29.4v3.5c0 .9.4 1.3 1.2 1.3H9V32h-.4c-.3 0-.4-.1-.4-.4v-2.2H6.1z"/><path class="st2" d="M5.4 23.4h4.8v2.2H5.4V28h4.8v7.5h-5V38h12.5v-2.5h-4.8V28h4.7v-2.4h-4.7v-2.2h4.8V21H5.4zM15.7 16.1l-1.3-1.9H9l-1.5 1.9c-.3.5-.6.7-.8.7H5.2v2.5h2.5c.5 0 .9-.2 1.2-.6l1.7-2h2.2l1.5 2c.3.4.6.6 1.1.6h2.5v-2.5h-1.5c-.2-.1-.5-.3-.7-.7zM18.1 16.6h1.1v18.9h-.9V38H31v-2.5h-9v-3.6h5.1c1.7 0 2.6-.7 2.6-2.2v-9.4H22v-3.7h9v-2.4H18.1v2.4zm3.9 6.1h4.8v6.2c0 .4-.2.6-.7.6H22v-6.8z"/></svg>